<svg viewBox="180.224 315.392 1687.552 1445.888" style="max-height: 500px" xmlns="http://www.w3.org/2000/svg" version="1.1" width="1687.552" height="1445.888"><path d="M 1479.15 351.398 C 1479.5 351.337 1479.86 351.262 1480.21 351.216 C 1511.88 347.163 1549.49 362.118 1573.92 381.472 C 1591.89 395.872 1605.49 414.999 1613.2 436.703 C 1621.16 459.406 1625.83 483.537 1631.35 506.939 L 1652 592.001 L 1731.92 931.015 L 1793.8 1186.95 C 1801.93 1221.21 1815.51 1265.63 1819.47 1299.22 C 1823.92 1337.05 1815.78 1373.55 1791.82 1403.75 C 1776.55 1423 1755.75 1436.28 1732.62 1444.16 C 1711 1451.52 1688.23 1455.87 1666.04 1461.22 L 1533.65 1492.4 L 1130 1588.9 L 769.121 1675.4 C 728.161 1685.5 687.149 1695.4 646.086 1705.07 C 616.444 1712.21 586.828 1720.55 556.465 1723.9 C 522.167 1724.99 489.456 1717.09 462.226 1695.53 C 441.856 1679.67 426.398 1658.35 417.645 1634.06 C 413.309 1621.83 411.233 1608.47 408.208 1595.85 L 387.916 1509.33 L 323.406 1235.88 L 248.835 922.922 L 226.617 829.195 C 222.224 810.632 216.557 791.549 214.524 772.586 C 210.288 736.21 220.925 699.665 244.023 671.245 C 258.061 654.017 277.805 639.145 298.977 631.976 C 321.766 624.259 346.127 619.927 369.522 614.321 L 499.615 583.347 L 912.113 486.663 L 1299 392.924 L 1401.58 368.218 C 1427.02 361.955 1453.03 354.075 1479.15 351.398 z M 564.16 1677.88 C 589.408 1672.98 614.386 1666.35 639.405 1660.39 L 767.755 1629.83 L 1230.63 1518.67 L 1547.06 1443.07 L 1654.41 1417.7 C 1674.48 1412.97 1695.77 1409.23 1715.3 1402.71 C 1732.83 1396.87 1749.17 1386.77 1759.58 1371.2 C 1776.42 1346 1776.78 1318.09 1770.93 1289.27 C 1766.89 1269.35 1761.11 1249.61 1756.25 1229.87 L 1730.41 1122.76 L 1652.6 795.866 C 1634.46 717.67 1615.8 639.595 1596.63 561.646 L 1580.87 496.26 C 1577.59 482.844 1574.75 468.968 1570 455.986 C 1563.42 437.969 1552.27 422.362 1536.21 411.695 C 1517.48 399.259 1496.85 396.027 1474.71 398.313 C 1447.22 402.765 1419.96 410.48 1392.88 417.023 L 1261.8 448.623 L 856.081 546.364 L 486.99 633.415 L 387.312 656.761 C 366.34 661.644 344.913 665.838 324.423 672.446 C 305.639 678.505 289.465 688.363 277.689 704.458 C 262.68 724.972 258.806 748.33 262.79 773.039 C 265.835 791.921 270.874 810.745 275.182 829.394 L 301.421 940.194 C 328.562 1056.87 356.32 1173.41 384.693 1289.79 L 438.026 1518.5 L 453.031 1582.32 C 455.607 1593.46 457.454 1605.22 461.107 1616.06 C 467.265 1634.32 477.694 1650.54 493.423 1661.91 C 514.491 1677.13 538.861 1680.52 564.16 1677.88 z" fill="rgb(18,19,20)" transform="translate(0,0)"/><path d="M 1102.31 591.345 C 1116.48 589.726 1132.55 593.416 1145.72 598.44 C 1203.65 620.535 1242.25 690.446 1266.14 744.409 C 1308.89 723.219 1352.2 700.232 1400.08 693.38 C 1430.33 689.05 1465.52 691.708 1490.69 710.809 C 1510.71 725.998 1522.55 750.042 1525.84 774.595 C 1533.58 832.282 1496.81 909.207 1461.98 954.807 C 1494.71 974.674 1537.12 1008.92 1561.29 1038.56 C 1583.79 1066.16 1597.44 1098.44 1593.57 1134.5 C 1590.92 1159.14 1576.6 1181.68 1557.39 1196.91 C 1506.84 1236.99 1428.2 1237.9 1367.08 1230.68 C 1367.12 1279.8 1359.38 1339.59 1334.5 1382.52 C 1317.32 1412.14 1296.78 1425.98 1264.2 1434.7 C 1244.01 1437.26 1225.58 1436.82 1206.59 1428.76 C 1151.2 1405.23 1114.62 1343.66 1093.07 1290.02 C 1081.96 1295.66 1071.39 1302.4 1060.22 1307.99 C 1026.82 1324.7 988.87 1337.94 951.595 1341.38 C 922.701 1344.05 893.406 1338.38 870.746 1319.28 C 851.16 1302.77 840.626 1279.72 838.457 1254.45 C 834.264 1205.61 854.354 1152.91 877.29 1110.41 C 883.084 1099.68 888.982 1088.48 896.868 1079.13 C 888.1 1072.29 878.432 1066.4 869.357 1059.95 C 848.257 1044.95 827.965 1028.51 810.424 1009.39 C 784.531 981.175 762.285 946.138 764.124 906.361 C 765.232 882.4 774.141 862.569 792.106 846.517 C 835.931 807.36 932.783 804.799 989.996 807.862 C 989.323 747.41 999.29 680.213 1037.03 631.153 C 1053.92 609.199 1074.62 595.027 1102.31 591.345 z M 1043.42 968.459 C 1048.41 996.75 1053.47 1025.11 1060.04 1053.08 C 1065.28 1075.4 1071.64 1097.49 1077.37 1119.69 C 1112.2 1133.03 1147.69 1144.55 1183.72 1154.19 C 1191.89 1156.33 1200.88 1159.57 1209.24 1160.23 C 1238.45 1137.72 1265.87 1112.55 1292.11 1086.68 C 1299.46 1079.45 1308.09 1072.21 1314.31 1064.05 C 1308.13 1014.24 1297.59 965.064 1282.81 917.094 C 1250.86 904.076 1218.29 893.188 1185.48 882.59 C 1173.95 878.865 1160.77 873.313 1148.85 871.764 C 1122.06 887.143 1061.35 943.058 1043.42 968.459 z M 1284.47 783.556 C 1293.93 805.52 1301.95 828.321 1309.52 850.996 C 1313.51 862.968 1316.88 875.268 1321.57 886.977 C 1339.42 893.52 1356.56 901.627 1373.76 909.688 L 1423.53 933.74 C 1448.22 892.541 1491.78 818.243 1479.23 769.838 C 1476.14 757.938 1468.9 749.269 1458.25 743.322 C 1445.28 736.074 1431.09 734.751 1416.54 736.389 C 1373.77 740.92 1321.63 761.777 1284.47 783.556 z M 1368.01 1189.97 C 1401.77 1190.36 1435.81 1191.98 1469.23 1185.91 C 1495 1180.46 1526.47 1171.03 1541.46 1147.39 C 1549.3 1135.02 1551.49 1121.12 1547.93 1106.96 C 1537.43 1065.24 1499.48 1036.71 1466.95 1011.96 C 1458.64 1005.64 1449.25 997.011 1440.1 992.097 C 1439.65 991.854 1439.16 991.696 1438.69 991.496 C 1423.56 1010.8 1407.08 1029.56 1390.53 1047.66 C 1381.66 1057.34 1370.34 1067 1363.27 1077.92 C 1366.22 1115.42 1368.13 1152.33 1368.01 1189.97 z M 1008.14 1281.91 C 1031.21 1272.91 1052.28 1260.94 1074.84 1251.1 C 1066.54 1230.41 1059.05 1209.39 1052.41 1188.11 C 1048.55 1175.82 1045.66 1163.19 1041.42 1151.03 C 1005.23 1135.73 969.74 1117.13 935.702 1097.53 C 913.559 1141.73 869.498 1216.89 887.213 1267.3 C 891.22 1278.7 898.913 1286.74 909.767 1291.87 C 940.013 1306.17 978.983 1292.43 1008.14 1281.91 z M 1033.52 811.053 C 1068.63 812.87 1102.49 822.461 1137.17 826.599 L 1148.04 817.775 C 1169.93 801.405 1202.43 778.144 1226.77 766.757 C 1209.79 725.231 1175.22 658.736 1132.56 640.596 C 1124.24 637.06 1115.33 635.292 1106.28 636.263 C 1089.62 639.375 1077.57 647.487 1068 661.431 C 1041.17 700.544 1034.87 764.535 1033.52 811.053 z M 918.61 1041.16 C 943.147 1011.04 968.314 981.607 996.382 954.679 C 990.362 922.617 989.924 882.832 990.013 850.097 C 973.864 850.043 957.269 849.296 941.175 850.409 C 907.463 852.893 841.75 855.539 818.351 882.946 C 810.747 891.853 808.282 903.833 809.562 915.276 C 814.111 955.944 854.199 992.861 884.882 1016.53 C 885.458 1016.97 886.044 1017.41 886.641 1017.82 C 897.284 1025.54 908.303 1033.01 918.61 1041.16 z M 1244.06 805.007 C 1226.15 817.001 1206.81 828.331 1190.05 841.798 L 1189.64 842.121 C 1202.66 845.485 1215.97 849.427 1228.73 853.701 C 1241.72 857.59 1254.8 861.792 1267.4 866.831 C 1263.51 857.106 1248.32 808.893 1244.06 805.007 z M 1321.82 1184.68 C 1322.05 1162.88 1323.55 1139.41 1320.68 1117.8 C 1304.87 1135.29 1278.16 1160.86 1258.97 1173.57 C 1263.58 1174.21 1268.17 1174.83 1272.75 1175.68 C 1288.98 1178.54 1305.86 1180.69 1321.82 1184.68 z M 1355.26 1023.17 C 1361.05 1014.84 1367.15 1007.01 1373.8 999.345 C 1382.26 989.426 1389.87 978.876 1398.19 968.854 C 1377.27 959.203 1356.66 948.366 1336.4 937.398 C 1343.91 965.596 1351.48 994.195 1355.26 1023.17 z M 1113.29 1228.4 C 1123.55 1221.75 1133.27 1214.4 1143.41 1207.6 C 1150.09 1202.67 1157.51 1198.58 1163.99 1193.49 C 1139.83 1186.19 1114.94 1179.17 1091.47 1169.86 C 1098.7 1189.36 1106.4 1208.78 1113.29 1228.4 z M 1064.36 884.254 C 1072.85 876.418 1081.51 868.775 1090.34 861.33 C 1071.56 858.703 1052.86 855.119 1034.08 852.645 C 1033.56 873.22 1035.68 893.76 1036.37 914.312 C 1044.55 903.339 1054.54 893.753 1064.36 884.254 z M 1321.25 1228.57 C 1286.49 1221.55 1249.27 1217.54 1215.7 1205.9 C 1188.82 1229.22 1159.84 1249.34 1129.69 1268.19 C 1148.76 1310.78 1180.6 1370.87 1226.12 1388.42 C 1229.63 1389.8 1233.24 1390.9 1236.91 1391.71 C 1251.38 1393.71 1264.34 1390.71 1276.2 1381.89 C 1305.43 1360.16 1312.95 1310.31 1317.38 1276.59 C 1319.44 1260.9 1320.74 1244.39 1321.25 1228.57 z M 1004.61 1005.87 C 991.944 1025.74 971.734 1043.95 957.555 1064.44 C 969.102 1070.73 980.975 1076.29 992.861 1081.91 C 1003.51 1087.2 1014.21 1092.36 1024.97 1097.41 C 1017.53 1066.99 1011.35 1036.44 1004.61 1005.87 z" fill="rgb(18,19,20)" transform="translate(0,0)"/><path d="M 1178.62 942.248 C 1192.95 941.225 1208.54 944.62 1221.12 951.635 C 1241.1 962.773 1248.57 981.657 1254.34 1002.61 C 1253.48 1004.57 1252.68 1006.54 1251.87 1008.52 C 1249.73 1013.81 1250.01 1019.22 1249.51 1024.81 C 1248.5 1035.85 1244.17 1047.46 1237.63 1056.45 C 1226.05 1072.37 1209.93 1077.97 1191.22 1080.9 C 1175.91 1083 1156.17 1077.46 1143.22 1069.24 C 1127.83 1059.46 1118.85 1042.08 1115.11 1024.58 C 1111.34 1006.93 1116.65 986.094 1126.76 971.321 C 1138.61 954.002 1158.95 946.264 1178.62 942.248 z" fill="rgb(18,19,20)" transform="translate(0,0)"/><path d="M 683.595 708.212 C 689.106 707.738 694.277 707.774 699.402 710.152 C 704.337 712.442 707.604 716.332 709.176 721.514 C 710.921 727.268 711.413 733.666 708.286 739.061 C 705.088 744.578 699.468 746.79 693.72 748.824 C 673.37 756.025 650.278 758.679 629.249 763.999 C 547.887 784.583 465.084 800.627 384.214 823.056 C 378.673 824.297 374.229 824.356 369.059 821.656 C 363.416 818.709 359.065 812.381 357.571 806.281 C 356.237 800.837 356.965 795.128 359.984 790.365 C 363.581 784.69 369.215 782.78 375.315 780.723 C 388.564 776.255 403.018 773.73 416.642 770.532 L 485.474 754.084 L 601.8 726.845 C 628.987 720.466 656.182 713.513 683.595 708.212 z" fill="rgb(18,19,20)" transform="translate(0,0)"/><path d="M 665.637 829.262 C 671.149 828.507 676.203 828.471 681.387 830.789 C 686.905 833.257 690.16 838.446 691.921 844.061 C 693.428 848.866 693.327 854.521 690.682 858.922 C 687.038 864.983 679.235 867.412 672.854 869.551 C 648.544 877.702 616.428 883.348 590.88 889.336 L 413.415 930.796 C 407.506 931.797 401.669 932.258 396.257 929.163 C 391.118 926.224 387.26 920.486 386.017 914.755 C 384.757 908.942 385.883 902.968 389.353 898.121 C 391.491 895.135 394.203 892.9 397.689 891.707 C 414.666 885.898 433.177 882.723 450.662 878.67 C 480.841 871.487 511.079 864.559 541.374 857.885 C 582.822 848.806 624.044 837.42 665.637 829.262 z" fill="rgb(18,19,20)" transform="translate(0,0)"/><path d="M 605.65 962.183 C 612.024 961.726 617.804 961.867 623.071 965.929 C 627.457 969.311 630.286 973.802 630.897 979.36 C 631.553 985.442 629.607 991.518 625.538 996.086 C 622.492 999.525 619.106 1000.68 614.859 1002.04 C 603.235 1005.75 590.826 1008.08 578.943 1010.91 L 508.372 1027.57 L 464.362 1038.06 C 454.419 1040.48 444.466 1043.62 434.245 1044.51 C 429.818 1045.15 425.347 1044.41 421.424 1042.21 C 416.499 1039.44 411.437 1034.13 409.967 1028.57 C 408.483 1022.95 409.499 1016.37 412.732 1011.52 C 415.671 1007.11 420.11 1005.51 424.925 1003.76 C 445.896 996.13 470.288 992.5 492.199 987.689 L 605.65 962.183 z" fill="rgb(18,19,20)" transform="translate(0,0)"/><g data-watermark="svgmaker-logo" opacity="0.4" transform="translate(1920, 1920) scale(0.0625, 0.0625)"><defs id="defs1"><clipPath id="roundedSquare"><rect x="0" y="0" id="rect1" ry="40" rx="40" height="200" width="200"/></clipPath></defs><g transform="matrix(5.12, 0, 0, 5.12, 0, 0)"><rect x="0" y="0" id="rect2" style="fill: rgb(147, 52, 232);" clip-path="url(#roundedSquare)" height="100" width="100"/><rect y="0" id="rect3" style="fill: rgb(36, 99, 235);" clip-path="url(#roundedSquare)" height="100" width="100" x="100"/><rect x="0" id="rect4" style="fill: rgb(253, 203, 55);" clip-path="url(#roundedSquare)" height="100" width="100" y="100"/><rect id="rect5" style="fill: rgb(23, 163, 74);" clip-path="url(#roundedSquare)" height="100" width="100" y="100" x="100"/><circle style="stroke-width: 1;" id="circle5" fill="#FFFFFF" r="18" cy="50" cx="150"/><circle id="circle6" style="fill: rgb(36, 99, 235); stroke-width: 1;" r="8" cy="50" cx="150"/><circle id="circle7" fill="#ffffff" r="18" cy="100" cx="50"/><circle id="circle8" style="fill:#9334e8;fill-opacity:1" r="8" cy="100" cx="49.686001"/><circle style="stroke-width: 1;" id="circle9" fill="#FFFFFF" r="18" cy="150" cx="150"/><circle id="circle10" style="fill: rgb(23, 163, 74); stroke-width: 1;" r="8" cy="150" cx="150"/><rect id="rect10" transform="matrix(0.891007, -0.45399, 0.45399, 0.891007, 0, 0)" style="fill:#ffffff;stroke:#ffffff" height="10.947" width="78.082" y="106.969" x="15.836"/><rect id="rect10-0" transform="matrix(-0.891007, -0.45399, -0.45399, 0.891007, 274.427666, 274.841885)" style="fill:#ffffff;stroke:#ffffff" height="10.947" width="78.082" y="-60.149" x="184.646"/></g></g></svg>