<svg xml:space="preserve" style="max-height: 500px" viewBox="0 0 188.6276 105.13474402730375" y="0px" x="0px" id="Layer_1" version="1.1" xmlns:xlink="http://www.w3.org/1999/xlink" xmlns="http://www.w3.org/2000/svg" width="188.6276" height="105.13474402730375"> <style type="text/css"> .st0{fill:#78A1D5;} .st1{fill:#00538F;} .st2{fill:#FFFFFF;} .st3{fill:#F3B22F;} .st4{fill:#E53F30;} .st5{fill:#223F7B;} .st6{fill:#549DCE;} .st7{fill:#EE4740;} .st8{fill:#FAB154;} </style> <g> <rect height="66.65" width="64.38" class="st0" y="1.38" x="344.11"/> <rect height="66.65" width="93.87" class="st1" y="1.38" x="250.24"/> <path d="M402.89,34.26c0,14.68-11.91,26.59-26.59,26.59c-14.69,0-26.59-11.91-26.59-26.59 c0-14.68,11.89-26.59,26.59-26.59C390.98,7.68,402.89,19.58,402.89,34.26" class="st2"/> <path d="M362.51,39.46c0.27-0.13,0.9-0.4,1.17-0.54c0.32-0.16,0.28-0.3,0.18-0.56c-0.42-1.28-0.63-2.63-0.63-4.03 c0-7.21,5.86-13.08,13.08-13.08c7.19,0,13.05,5.87,13.05,13.08c0,1.84-0.39,3.62-1.08,5.2c-0.06,0.11-0.07,0.34,0.12,0.44 c0.21,0.09,1.01,0.45,1.24,0.54c0.24,0.09,0.38,0.04,0.5-0.21c0.79-1.84,1.23-3.85,1.23-5.97c0-8.33-6.75-15.09-15.07-15.09 c-8.33,0-15.08,6.76-15.08,15.09c0,1.71,0.28,3.34,0.8,4.87C362.11,39.43,362.24,39.58,362.51,39.46" class="st3"/> <path d="M358.68,41.23c0.31-0.16,1.38-0.65,1.67-0.79c0.3-0.12,0.23-0.37,0.18-0.48c-0.63-1.76-0.97-3.65-0.97-5.63 c0-9.25,7.51-16.76,16.76-16.76c9.22,0,16.73,7.51,16.73,16.76c0,2.37-0.49,4.62-1.38,6.66c-0.05,0.11-0.12,0.36,0.16,0.47 c0.25,0.12,1.46,0.65,1.68,0.75c0.24,0.1,0.38,0.06,0.5-0.22c1.03-2.34,1.59-4.94,1.59-7.65c0-10.64-8.64-19.31-19.28-19.31 c-10.65,0-19.3,8.67-19.3,19.31c0,2.34,0.43,4.59,1.2,6.67C358.25,41.13,358.35,41.38,358.68,41.23" class="st3"/> <path d="M353.47,43.63c0.37-0.19,2.64-1.23,3.03-1.41c0.41-0.18,0.23-0.49,0.17-0.66c-0.84-2.26-1.3-4.7-1.3-7.24 c0-11.56,9.38-20.94,20.93-20.94c11.52,0,20.91,9.39,20.91,20.94c0,2.92-0.61,5.7-1.68,8.23c-0.07,0.15-0.15,0.46,0.24,0.63 c0.36,0.16,2.57,1.14,2.87,1.26c0.3,0.14,0.53,0.11,0.73-0.33c1.28-3.02,1.98-6.33,1.98-9.78c0-13.83-11.23-25.09-25.03-25.09 c-13.83,0-25.06,11.26-25.06,25.09c0,3.18,0.59,6.22,1.68,9.01C352.99,43.49,353.1,43.79,353.47,43.63" class="st3"/> <path d="M376.32,28.88c1.47,0,2.69-1.2,2.69-2.68c0-1.5-1.22-2.69-2.69-2.69c-1.5,0-2.68,1.19-2.68,2.69 C373.64,27.68,374.82,28.88,376.32,28.88" class="st4"/> <path d="M377.3,42.94c0.52,0,0.94-0.42,0.94-0.95V36.1c0.03-0.75,0.56-1.7,1.08-2.26l5.54-5.54 c0.37-0.37,0.37-0.99,0-1.35l-1.01-1.01c-0.37-0.38-0.98-0.38-1.34,0l-5,5.01c-0.34,0.32-0.58,0.53-1.19,0.53 c-0.63,0-0.87-0.2-1.19-0.53l-5.01-5.01c-0.38-0.38-0.98-0.38-1.34,0l-1.02,1.01c-0.37,0.36-0.37,0.98,0,1.35l5.55,5.54 c0.52,0.56,1.04,1.51,1.06,2.26v5.89c0,0.52,0.42,0.95,0.95,0.95H377.3" class="st4"/> <path d="M394.78,45.03c-0.94,0.35-2.69,2.08-3.48,2.78l-0.22,0.03c0.28-0.31,1.49-1.84,1.81-2.37 c0.96-1.59-0.85-3.08-2.83-1.94c-0.76,0.43-2.01,1.75-2.62,2.23l-0.19,0.05c0.27-0.27,1.39-1.74,1.69-2.22 c0.87-1.28-0.94-2.5-2.51-1.55c-1.11,0.67-2.01,1.57-2.94,2.29l-0.16,0.04c0.25-0.24,0.87-0.98,1.11-1.23 c0.92-1.04-0.4-2.24-1.8-1.51c-1.34,0.68-3.26,2.61-5.37,3.96c0.98,0.53,2.7,0.61,5.42,1.77c2.74,1.17,3.62,3.88,1.83,6.03 c-1.65,1.99-4.16,1.32-6.32,0.64c-2.51-0.78-3.4-1.6-6.42-2.64c-1.97-0.69-2.78-0.68-2.74-1.24c0.03-0.65,1.74-0.26,3.33,0.32 c4.43,1.61,10.31,5.25,11.75,1.32c1.14-3.1-3.96-4.44-5.92-4.81c-2.72-0.52-4.59-2.52-6.95-3.79c-3.56-1.92-6.3-1.97-8.33-1.6 c-2.19,0.39-5.3,2.17-7.19,3.31c-1.31,0.78-1.21,1.96,0.06,3.78c4.55,6.45,12.03,10.67,20.5,10.67c8.99,0,16.87-4.77,21.29-11.88 C398.58,45.9,397.04,44.23,394.78,45.03" class="st5"/> <path d="M322.96,62.27c0,0.72,2.58,1.5,3.92,1.5c1.34,0,3.23-0.51,4.2-2.89c1.02-2.51,5.26-17.03,5.26-17.03l0.48-0.01 c0.95-0.17,1.29-0.73,1.29-2.19c0-0.52-0.07-0.57-0.5-0.57h-3.48c-0.33,0.01-0.37,0.06-0.47,0.41l-2.89,11.19l-2.98-11.19 c-0.09-0.34-0.14-0.4-0.47-0.41h-3.5c-0.42,0-0.5,0.05-0.5,0.57c0,1.46,0.36,2.03,1.31,2.19l0.49,0.01c0,0,2.78,9.74,4.24,13.82 l-0.21,0.79c-0.47,1.53-1.28,2.23-2.56,2.23c-0.31,0-2.02-0.26-2.02-0.26c-0.97-0.08-1.23,0.33-1.34,0.68 C323.08,61.61,322.96,62.18,322.96,62.27" class="st2"/> <path d="M311.11,35.65h-4.15c-0.37,0-0.37,0.04-0.43,0.4l-2.34,14.49l-2.82-14.42c-0.07-0.39-0.13-0.48-0.57-0.48h-1.9 c-0.7,0-0.73,0.11-0.81,0.5l-2.95,14.39l-2.21-14.49c-0.06-0.37-0.06-0.4-0.42-0.4h-4.27c-0.44,0-0.51,0.04-0.51,0.59 c0,1.59,0.39,2.18,1.52,2.31l0.43,0.03l3.25,17.83c0.11,0.41,0.15,0.5,0.54,0.5h2.81c0.45,0,0.47-0.02,0.54-0.5l2.8-13.87 l2.35,13.88c0.09,0.46,0.09,0.49,0.55,0.49h2.87c0.38,0,0.44-0.08,0.54-0.5l3.68-17.85l0.41-0.01c1.14-0.13,1.51-0.71,1.51-2.31 C311.53,35.73,311.46,35.67,311.11,35.65" class="st2"/> <path d="M318.22,53.36c-0.39,0.42-1.2,1.3-2.34,1.3c-1.17,0-2.06-1-2.06-2.32c0-2.93,3.46-2.75,4.41-2.68V53.36 L318.22,53.36z M321.92,54.11c-0.17-0.62-0.33-1.4-0.33-2.84v-5.61c0-3.53-1.53-5.1-5.03-5.1c-2.43,0-5,1.05-5,1.7 c0,0.08,0.11,0.6,0.27,1.07c0.08,0.21,0.23,0.69,1.26,0.61c0.42-0.03,2.2-0.37,2.95-0.37c1.97,0,2.17,1.15,2.17,2.51v1.12 c-2.46,0-7.77,0.03-7.77,5.37c0,3.01,1.67,4.88,4.37,4.88c2.04,0,3.06-1.12,3.67-1.8l0.23-0.26l0.08,0.41 c0.13,0.65,0.25,1.1,0.75,1.1h3.58c0.45,0,0.5-0.04,0.5-0.55C323.63,54.75,323.25,54.18,321.92,54.11" class="st2"/> <path d="M296.78,27.81l-0.38-0.01V15.15c0-0.31-0.02-0.35-0.32-0.35h-5c-0.44,0-0.49,0.04-0.49,0.56 c0,1.72,0.46,2.25,1.94,2.25h0.36V27.8l-0.38,0.01c-1.49,0-1.94,0.53-1.94,2.25c0,0.52,0.07,0.56,0.5,0.56h7.15 c0.42,0,0.5-0.04,0.5-0.56C298.73,28.36,298.24,27.81,296.78,27.81" class="st2"/> <path d="M294.61,8.81c-1.2,0-2.13,1-2.13,2.27c0,1.25,0.95,2.29,2.13,2.29c1.16,0,2.08-1.03,2.08-2.29 C296.69,9.83,295.77,8.81,294.61,8.81" class="st2"/> <path d="M270.95,12.81h0.09c1.52,0,2-0.56,2-2.32c0-0.52-0.06-0.57-0.51-0.57h-6.89c-0.39,0-0.45,0.07-0.49,0.3 l-0.02,0.27c0,1.75,0.48,2.31,1.97,2.32h0.1v10.38c0,1.99,0,4.7-3.19,4.7c-2.95,0-3.19-2.13-3.19-4.7V12.81h0.1 c1.48-0.01,1.96-0.57,1.96-2.32l-0.02-0.33c-0.04-0.19-0.1-0.24-0.48-0.24h-6.88c-0.44,0-0.51,0.05-0.51,0.57 c0,1.78,0.46,2.32,2,2.32h0.09v10.38c0,5.59,2.07,7.98,6.92,7.98c4.85,0,6.93-2.39,6.93-7.98V12.81" class="st2"/> <path d="M286.9,27.81v-8.54c0-3.46-1.14-5.02-3.68-5.02c-2.28,0-3.54,1.33-4.51,2.33c-0.09-0.37-0.16-0.66-0.16-0.66 c-0.15-0.69-0.29-1.13-0.73-1.13h-3.86c-0.43,0-0.49,0.04-0.49,0.56c0,1.63,0.41,2.21,1.78,2.24c0.19,0.69,0.32,1.24,0.32,2.87 v7.33c-1.46,0.01-1.9,0.54-1.9,2.25c0,0.52,0.07,0.56,0.5,0.56h4.6c0.28,0,0.3-0.04,0.3-0.34V18.83c0.42-0.44,1.38-1.39,2.6-1.39 c1.74,0,1.74,1.99,1.74,2.84v10c0,0.3,0.01,0.34,0.31,0.34h4.58c0.42,0,0.5-0.04,0.5-0.56C288.79,28.38,288.32,27.83,286.9,27.81" class="st2"/> <path d="M305.38,31.17c2.04,0,3.7-0.53,3.7-0.97c0-0.08-0.12-0.68-0.19-0.97c-0.29-1.19-0.4-1.63-2.56-1.36 c-0.27,0.03-0.52-0.03-0.69-0.2c-0.42-0.43-0.42-1.36-0.42-2.11v-7.95h1.94c1.49,0,1.94-0.52,1.94-2.25c0-0.52-0.06-0.56-0.5-0.56 h-3.39v-4.44c0-0.43-0.04-0.45-0.2-0.45c-0.15,0-0.87,0.09-1.23,0.15c-1,0.17-2.07,0.94-2.07,2.73v2.01h-2 c-0.42,0-0.5,0.04-0.5,0.56c0,1.72,0.46,2.25,1.94,2.25h0.56v7.41C301.72,28.04,301.72,31.17,305.38,31.17" class="st2"/> <path d="M313.99,20.91l0.02-0.27c0.09-1.08,0.32-3.59,2.56-3.59c2.19,0,2.2,2.56,2.2,3.86H313.99L313.99,20.91z M322.38,23c0-5.8-1.94-8.74-5.73-8.74c-3.76,0-6.28,3.46-6.28,8.62c0,6.85,3.49,8.3,6.43,8.3c2.36,0,5.11-1.11,5.11-1.81 c0-0.11-0.11-0.64-0.27-1.12c-0.11-0.35-0.32-0.7-1.31-0.66c-0.77,0.04-2.01,0.4-3.15,0.4c-2.19,0-3.3-1.37-3.32-4.28h7.95 C322.28,23.7,322.38,23.58,322.38,23" class="st2"/> <path d="M330.16,28.14c-2.13,0-2.55-1.95-2.55-5.34c0-3.59,0.44-5.53,2.73-5.53c0.91,0,1.57,0.19,2.33,0.69v8.97 C332.23,27.47,331.58,28.14,330.16,28.14L330.16,28.14z M336.5,27.81c-0.2-0.62-0.32-1.27-0.32-2.82V9.22 c0-0.29-0.02-0.34-0.32-0.34h-4.61c-0.43,0-0.51,0.04-0.51,0.54c0,1.67,0.45,2.22,1.83,2.25h0.09v3.64l-0.29-0.2 c-0.53-0.37-1.24-0.87-2.78-0.87c-3.59,0-5.51,3.15-5.51,9.11c0,5.03,1.74,7.81,4.9,7.81c2.5,0,4.15-1.83,4.15-1.83l0.2,0.68 c0.15,0.53,0.18,0.59,0.6,0.59h4.06c0.42,0,0.49-0.04,0.49-0.56C338.51,28.37,338.06,27.81,336.5,27.81" class="st2"/> <path d="M400.59,61.86h0.36c0.41,0,0.57-0.05,0.57-0.35c0-0.23-0.14-0.33-0.49-0.33h-0.45V61.86L400.59,61.86z M400.59,63.12h-0.33V60.9h0.83c0.51,0,0.77,0.2,0.77,0.63c0,0.4-0.26,0.57-0.54,0.6l0.6,0.99h-0.4l-0.59-0.98h-0.34V63.12 L400.59,63.12z M402.52,61.98c0-0.89-0.68-1.58-1.55-1.58c-0.86,0-1.55,0.69-1.55,1.58c0,0.92,0.68,1.6,1.55,1.6 C401.84,63.58,402.52,62.9,402.52,61.98L402.52,61.98z M399.06,61.98c0-1.06,0.87-1.88,1.91-1.88c1.04,0,1.92,0.82,1.92,1.88 c0,1.09-0.88,1.91-1.92,1.91C399.94,63.89,399.06,63.07,399.06,61.98" class="st2"/> <g> <path d="M258.18,89.53v7.02c0,1.17-0.37,2.09-1.1,2.77c-0.73,0.68-1.73,1.02-2.99,1.02c-1.25,0-2.23-0.33-2.97-0.99 s-1.11-1.56-1.12-2.72v-7.1h2.2v7.04c0,0.7,0.17,1.21,0.5,1.53c0.33,0.32,0.8,0.48,1.39,0.48c1.24,0,1.86-0.65,1.88-1.95v-7.1 H258.18z" class="st1"/> <path d="M261.79,92.26l0.07,0.92c0.57-0.71,1.33-1.06,2.28-1.06c0.84,0,1.47,0.25,1.88,0.74s0.62,1.23,0.63,2.21v5.12 h-2.12v-5.08c0-0.45-0.1-0.78-0.29-0.98s-0.52-0.3-0.97-0.3c-0.6,0-1.04,0.25-1.34,0.76v5.6h-2.12v-7.92H261.79z" class="st1"/> <path d="M268.23,90.21c0-0.32,0.11-0.58,0.32-0.78c0.21-0.21,0.5-0.31,0.87-0.31c0.36,0,0.65,0.1,0.86,0.31 s0.32,0.47,0.32,0.78c0,0.32-0.11,0.59-0.33,0.79c-0.22,0.21-0.5,0.31-0.86,0.31s-0.64-0.1-0.86-0.31 C268.34,90.8,268.23,90.54,268.23,90.21z M270.48,100.19h-2.12v-7.92h2.12V100.19z" class="st1"/> <path d="M274.75,90.32v1.95h1.36v1.55h-1.36v3.96c0,0.29,0.06,0.5,0.17,0.63s0.33,0.19,0.64,0.19 c0.23,0,0.44-0.02,0.62-0.05v1.6c-0.42,0.13-0.84,0.19-1.28,0.19c-1.48,0-2.24-0.75-2.27-2.25v-4.27h-1.16v-1.55h1.16v-1.95 H274.75z" class="st1"/> <path d="M280.93,100.34c-1.16,0-2.11-0.36-2.84-1.07S277,97.6,277,96.42v-0.21c0-0.8,0.15-1.51,0.46-2.13 c0.31-0.63,0.74-1.11,1.31-1.45c0.56-0.34,1.21-0.51,1.93-0.51c1.08,0,1.94,0.34,2.56,1.03c0.62,0.68,0.93,1.65,0.93,2.91v0.86 h-5.05c0.07,0.52,0.28,0.93,0.62,1.25c0.34,0.31,0.78,0.47,1.31,0.47c0.82,0,1.45-0.29,1.91-0.89l1.04,1.16 c-0.32,0.45-0.75,0.8-1.29,1.05C282.19,100.21,281.59,100.34,280.93,100.34z M280.69,93.82c-0.42,0-0.76,0.14-1.02,0.43 c-0.26,0.29-0.43,0.69-0.5,1.22h2.94V95.3c-0.01-0.47-0.14-0.84-0.38-1.09C281.49,93.95,281.14,93.82,280.69,93.82z" class="st1"/> <path d="M285.07,96.17c0-1.24,0.28-2.22,0.83-2.95c0.55-0.73,1.31-1.1,2.27-1.1c0.77,0,1.41,0.29,1.91,0.86v-4.04 h2.13v11.25h-1.91l-0.1-0.84c-0.53,0.66-1.21,0.99-2.04,0.99c-0.93,0-1.68-0.37-2.25-1.1C285.35,98.5,285.07,97.48,285.07,96.17z M287.18,96.32c0,0.75,0.13,1.32,0.39,1.71s0.63,0.6,1.13,0.6c0.65,0,1.12-0.28,1.38-0.83v-3.14c-0.26-0.55-0.72-0.83-1.37-0.83 C287.69,93.82,287.18,94.66,287.18,96.32z" class="st1"/> <path d="M306.03,97.11l1.44-7.59h2.19l-2.37,10.66h-2.21l-1.74-7.13l-1.74,7.13h-2.21l-2.37-10.66h2.19l1.44,7.57 l1.76-7.57h1.86L306.03,97.11z" class="st1"/> <path d="M315.29,100.19c-0.1-0.19-0.17-0.43-0.21-0.71c-0.51,0.57-1.18,0.86-2,0.86c-0.78,0-1.42-0.22-1.93-0.67 c-0.51-0.45-0.77-1.02-0.77-1.7c0-0.84,0.31-1.48,0.93-1.93c0.62-0.45,1.52-0.68,2.7-0.68h0.97v-0.45c0-0.37-0.09-0.66-0.28-0.88 c-0.19-0.22-0.48-0.33-0.89-0.33c-0.36,0-0.64,0.08-0.84,0.26c-0.2,0.17-0.3,0.41-0.3,0.7h-2.12c0-0.46,0.14-0.88,0.42-1.27 s0.68-0.7,1.2-0.92c0.52-0.22,1.1-0.33,1.74-0.33c0.98,0,1.75,0.25,2.33,0.74c0.57,0.49,0.86,1.18,0.86,2.07v3.44 c0,0.75,0.11,1.32,0.32,1.71v0.13H315.29z M313.54,98.72c0.31,0,0.6-0.07,0.86-0.21c0.26-0.14,0.46-0.33,0.59-0.56v-1.36h-0.79 c-1.06,0-1.62,0.37-1.69,1.1l-0.01,0.12c0,0.26,0.09,0.48,0.28,0.65S313.22,98.72,313.54,98.72z" class="st1"/> </g> <g> <path d="M321.68,97.19l1.46-4.93h2.27l-3.19,9.16l-0.18,0.42c-0.47,1.04-1.25,1.55-2.34,1.55 c-0.31,0-0.62-0.05-0.94-0.14v-1.6l0.32,0.01c0.4,0,0.7-0.06,0.9-0.18c0.2-0.12,0.35-0.33,0.46-0.61l0.25-0.65l-2.78-7.95h2.28 L321.68,97.19z" class="st1"/> </g> <g> <path d="M249.64,112.25c0-0.79,0.15-1.49,0.45-2.1s0.74-1.09,1.31-1.43s1.23-0.5,1.98-0.5c1.07,0,1.94,0.33,2.62,0.98 s1.05,1.54,1.13,2.67l0.01,0.54c0,1.22-0.34,2.19-1.02,2.93c-0.68,0.74-1.59,1.1-2.73,1.1s-2.05-0.37-2.74-1.1 s-1.02-1.73-1.02-2.99V112.25z M251.75,112.4c0,0.75,0.14,1.33,0.42,1.73s0.69,0.6,1.22,0.6c0.51,0,0.91-0.2,1.2-0.59 s0.43-1.02,0.43-1.89c0-0.74-0.14-1.31-0.43-1.72c-0.29-0.41-0.69-0.61-1.22-0.61c-0.52,0-0.92,0.2-1.2,0.61 S251.75,111.55,251.75,112.4z" class="st1"/> <path d="M259.03,116.28v-6.37h-1.18v-1.55h1.18v-0.67c0-0.89,0.26-1.58,0.77-2.07c0.51-0.49,1.22-0.74,2.14-0.74 c0.29,0,0.65,0.05,1.08,0.15l-0.02,1.63c-0.18-0.04-0.39-0.07-0.64-0.07c-0.8,0-1.19,0.38-1.19,1.13v0.64h1.57v1.55h-1.57v6.37 H259.03z" class="st1"/> <path d="M269.9,112.53v3.76h-2.2v-10.66h4.16c0.8,0,1.51,0.15,2.11,0.44c0.61,0.29,1.08,0.71,1.4,1.25 c0.33,0.54,0.49,1.15,0.49,1.84c0,1.04-0.36,1.87-1.07,2.47c-0.71,0.6-1.71,0.9-2.97,0.9H269.9z M269.9,110.75h1.96 c0.58,0,1.02-0.14,1.33-0.41c0.3-0.27,0.46-0.66,0.46-1.17c0-0.52-0.15-0.95-0.46-1.27s-0.73-0.49-1.27-0.5h-2.01V110.75z" class="st1"/> <path d="M280.88,116.43c-1.16,0-2.11-0.36-2.84-1.07c-0.73-0.71-1.1-1.66-1.1-2.85v-0.21c0-0.8,0.15-1.51,0.46-2.13 c0.31-0.63,0.74-1.11,1.31-1.45c0.56-0.34,1.21-0.51,1.93-0.51c1.08,0,1.94,0.34,2.56,1.03c0.62,0.68,0.93,1.65,0.93,2.91v0.86 h-5.05c0.07,0.52,0.27,0.93,0.62,1.25c0.34,0.31,0.78,0.47,1.31,0.47c0.82,0,1.45-0.29,1.91-0.89l1.04,1.16 c-0.32,0.45-0.75,0.8-1.29,1.05C282.14,116.3,281.54,116.43,280.88,116.43z M280.64,109.92c-0.42,0-0.76,0.14-1.02,0.43 c-0.26,0.29-0.43,0.69-0.5,1.22h2.94v-0.17c-0.01-0.47-0.14-0.84-0.38-1.09C281.44,110.05,281.09,109.92,280.64,109.92z" class="st1"/> <path d="M287.29,108.36l0.07,0.92c0.57-0.71,1.33-1.06,2.28-1.06c0.84,0,1.46,0.25,1.88,0.74s0.62,1.23,0.63,2.21 v5.12h-2.12v-5.08c0-0.45-0.1-0.78-0.29-0.98s-0.52-0.3-0.97-0.3c-0.6,0-1.04,0.25-1.34,0.76v5.6h-2.12v-7.92H287.29z" class="st1"/> <path d="M295.69,108.36l0.07,0.92c0.57-0.71,1.33-1.06,2.28-1.06c0.84,0,1.46,0.25,1.88,0.74s0.62,1.23,0.63,2.21 v5.12h-2.12v-5.08c0-0.45-0.1-0.78-0.29-0.98s-0.52-0.3-0.97-0.3c-0.6,0-1.04,0.25-1.34,0.76v5.6h-2.12v-7.92H295.69z" class="st1"/> <path d="M306.44,114.09c0-0.26-0.13-0.46-0.38-0.61c-0.26-0.15-0.67-0.28-1.23-0.4c-1.88-0.4-2.83-1.2-2.83-2.4 c0-0.7,0.29-1.29,0.88-1.76c0.58-0.47,1.35-0.71,2.29-0.71c1.01,0,1.81,0.24,2.41,0.71c0.6,0.47,0.9,1.09,0.9,1.85h-2.12 c0-0.3-0.1-0.55-0.29-0.75c-0.2-0.2-0.5-0.3-0.92-0.3c-0.36,0-0.63,0.08-0.83,0.24s-0.29,0.37-0.29,0.62 c0,0.23,0.11,0.42,0.33,0.57c0.22,0.14,0.6,0.27,1.12,0.37c0.53,0.11,0.97,0.22,1.33,0.36c1.12,0.41,1.68,1.12,1.68,2.13 c0,0.72-0.31,1.31-0.93,1.75c-0.62,0.45-1.42,0.67-2.4,0.67c-0.66,0-1.25-0.12-1.77-0.36c-0.52-0.24-0.92-0.56-1.21-0.97 c-0.29-0.41-0.44-0.86-0.44-1.34h2.01c0.02,0.38,0.16,0.66,0.42,0.86s0.61,0.3,1.04,0.3c0.41,0,0.71-0.08,0.92-0.23 C306.34,114.54,306.44,114.34,306.44,114.09z" class="st1"/> <path d="M312.82,113.29l1.46-4.93h2.27l-3.19,9.16l-0.18,0.42c-0.47,1.04-1.25,1.55-2.34,1.55 c-0.31,0-0.62-0.05-0.94-0.14v-1.6l0.32,0.01c0.4,0,0.7-0.06,0.9-0.18c0.2-0.12,0.35-0.33,0.46-0.61l0.25-0.65l-2.78-7.95h2.28 L312.82,113.29z" class="st1"/> <path d="M319.62,116.28h-2.12v-11.25h2.12V116.28z" class="st1"/> <path d="M324.33,113.7l1.47-5.34h2.21l-2.67,7.92h-2.02l-2.67-7.92h2.21L324.33,113.7z" class="st1"/> <path d="M333.54,116.28c-0.1-0.19-0.17-0.43-0.21-0.71c-0.51,0.57-1.18,0.86-2,0.86c-0.78,0-1.42-0.22-1.93-0.67 c-0.51-0.45-0.77-1.02-0.77-1.7c0-0.84,0.31-1.48,0.93-1.93c0.62-0.45,1.52-0.68,2.7-0.68h0.97v-0.45c0-0.37-0.09-0.66-0.28-0.88 c-0.19-0.22-0.48-0.33-0.89-0.33c-0.36,0-0.64,0.08-0.84,0.26c-0.2,0.17-0.3,0.41-0.3,0.7h-2.12c0-0.46,0.14-0.88,0.42-1.27 s0.68-0.7,1.2-0.92c0.52-0.22,1.1-0.33,1.74-0.33c0.98,0,1.75,0.25,2.33,0.74c0.57,0.49,0.86,1.18,0.86,2.07v3.44 c0,0.75,0.11,1.32,0.32,1.71v0.13H333.54z M331.79,114.81c0.31,0,0.6-0.07,0.86-0.21c0.26-0.14,0.46-0.33,0.59-0.56v-1.36h-0.79 c-1.06,0-1.62,0.37-1.69,1.1l-0.01,0.12c0,0.26,0.09,0.48,0.28,0.65S331.47,114.81,331.79,114.81z" class="st1"/> <path d="M338.94,108.36l0.07,0.92c0.57-0.71,1.33-1.06,2.28-1.06c0.84,0,1.46,0.25,1.88,0.74 c0.41,0.49,0.62,1.23,0.63,2.21v5.12h-2.12v-5.08c0-0.45-0.1-0.78-0.29-0.98s-0.52-0.3-0.97-0.3c-0.6,0-1.04,0.25-1.34,0.76v5.6 h-2.12v-7.92H338.94z" class="st1"/> <path d="M345.38,106.31c0-0.32,0.11-0.58,0.32-0.78c0.21-0.21,0.5-0.31,0.87-0.31c0.36,0,0.65,0.1,0.86,0.31 s0.32,0.47,0.32,0.78c0,0.32-0.11,0.59-0.33,0.79c-0.22,0.21-0.5,0.31-0.86,0.31s-0.64-0.1-0.86-0.31 C345.49,106.89,345.38,106.63,345.38,106.31z M347.63,116.28h-2.12v-7.92h2.12V116.28z" class="st1"/> <path d="M353.96,116.28c-0.1-0.19-0.17-0.43-0.21-0.71c-0.51,0.57-1.18,0.86-2,0.86c-0.78,0-1.42-0.22-1.93-0.67 c-0.51-0.45-0.77-1.02-0.77-1.7c0-0.84,0.31-1.48,0.93-1.93c0.62-0.45,1.52-0.68,2.7-0.68h0.97v-0.45c0-0.37-0.09-0.66-0.28-0.88 c-0.19-0.22-0.48-0.33-0.89-0.33c-0.36,0-0.64,0.08-0.84,0.26c-0.2,0.17-0.3,0.41-0.3,0.7h-2.12c0-0.46,0.14-0.88,0.42-1.27 s0.68-0.7,1.2-0.92c0.52-0.22,1.1-0.33,1.74-0.33c0.98,0,1.75,0.25,2.33,0.74c0.57,0.49,0.86,1.18,0.86,2.07v3.44 c0,0.75,0.11,1.32,0.32,1.71v0.13H353.96z M352.21,114.81c0.31,0,0.6-0.07,0.86-0.21c0.26-0.14,0.46-0.33,0.59-0.56v-1.36h-0.79 c-1.06,0-1.62,0.37-1.69,1.1l-0.01,0.12c0,0.26,0.09,0.48,0.28,0.65S351.89,114.81,352.21,114.81z" class="st1"/> </g> </g> <g> <g> <g> <g> <path d="M157.98,66.87c-6.26,5.1-14.25,8.17-22.96,8.17H38.61c-10.73,0-20.37-4.65-27.03-12.03l0,0l6.26,7.84 c6.66,7.46,16.32,12.18,27.11,12.18h96.42c8.71,0,16.69-3.07,22.96-8.17L157.98,66.87C157.98,66.87,157.98,66.87,157.98,66.87z" class="st6"/> <path d="M178.69,74.96L178.69,74.96c-9.64,0-16.59-4.42-20.71-8.09l6.33,7.98c2.72,2.42,6.69,5.14,11.82,6.73 c2.65,0.82,5.6,1.36,8.89,1.36L178.69,74.96z" class="st7"/> <path d="M179.21,65.55c-0.86-5.03-1.48-11.25-1.48-18.9c0-7.92-2.56-15.22-6.85-21.19l-7.45-9.52 c0,0-0.01,0-0.01-0.01c4.99,6.23,7.98,14.13,7.98,22.73c0,26.58,7.29,36.3,7.29,36.3c0,0,0,0,0,0l0,0l6.33,7.98 C185.02,82.95,181.34,77.98,179.21,65.55z" class="st8"/> <g> <path d="M178.69,74.96c0,0-7.29-9.72-7.29-36.3c0-20.09-16.29-36.38-36.38-36.38H38.61 c-20.09,0-36.38,16.29-36.38,36.38c0,20.09,16.29,36.38,36.38,36.38h96.42c8.71,0,16.69-3.07,22.96-8.17 C162.1,70.54,169.05,74.96,178.69,74.96z" class="st1"/> <g> <g> <path d="M67.08,57.27H41.39v-5.56l11.83-12.44c2.92-3.32,4.37-5.96,4.37-7.91c0-1.58-0.35-2.79-1.04-3.61 c-0.69-0.83-1.69-1.24-3.01-1.24c-1.3,0-2.35,0.55-3.16,1.66c-0.81,1.1-1.21,2.48-1.21,4.14h-8.55 c0-2.26,0.56-4.35,1.69-6.26c1.13-1.91,2.7-3.41,4.7-4.49c2.01-1.08,4.25-1.62,6.73-1.62c3.98,0,7.04,0.92,9.19,2.76 c2.15,1.84,3.22,4.48,3.22,7.91c0,1.45-0.27,2.86-0.81,4.24c-0.54,1.38-1.38,2.82-2.52,4.32c-1.14,1.51-2.97,3.53-5.5,6.06 l-4.75,5.49h14.49V57.27z" class="st2"/> <path d="M96.89,57.27h-8.55V30.07l-8.39,2.45v-6.47l16.16-5.59h0.78V57.27z" class="st2"/> <path d="M131.25,57.27h-8.55V30.07l-8.39,2.45v-6.47l16.16-5.59h0.78V57.27z" class="st2"/> <path d="M76.06,46.21h-0.04c-1.83,0-3.32-1.49-3.32-3.32v-0.04c0-1.83,1.49-3.32,3.32-3.32h0.04 c1.83,0,3.32,1.49,3.32,3.32v0.04C79.37,44.73,77.89,46.21,76.06,46.21z" class="st2"/> <path d="M108.66,46.21h-0.04c-1.83,0-3.32-1.49-3.32-3.32v-0.04c0-1.83,1.49-3.32,3.32-3.32h0.04 c1.83,0,3.32,1.49,3.32,3.32v0.04C111.98,44.73,110.5,46.21,108.66,46.21z" class="st2"/> </g> </g> </g> </g> </g> </g> <g> <path d="M53.91,96.21v3.52h-2.06v-9.99h3.9c0.75,0,1.41,0.14,1.98,0.41c0.57,0.27,1.01,0.66,1.31,1.17 s0.46,1.08,0.46,1.73c0,0.98-0.34,1.75-1.01,2.32c-0.67,0.56-1.6,0.85-2.78,0.85H53.91z M53.91,94.54h1.84 c0.54,0,0.96-0.13,1.25-0.38c0.29-0.26,0.43-0.62,0.43-1.1c0-0.49-0.14-0.89-0.43-1.19c-0.29-0.3-0.69-0.46-1.19-0.47h-1.89V94.54 z" class="st1"/> <path d="M64.01,99.87c-1.09,0-1.98-0.33-2.66-1c-0.68-0.67-1.03-1.56-1.03-2.67V96c0-0.75,0.14-1.41,0.43-2 c0.29-0.59,0.7-1.04,1.23-1.36c0.53-0.32,1.13-0.48,1.81-0.48c1.02,0,1.82,0.32,2.4,0.96s0.88,1.55,0.88,2.72v0.81h-4.73 c0.06,0.49,0.26,0.87,0.58,1.17c0.32,0.29,0.73,0.44,1.23,0.44c0.76,0,1.36-0.28,1.79-0.83l0.97,1.09 c-0.3,0.42-0.7,0.75-1.21,0.99C65.19,99.75,64.63,99.87,64.01,99.87z M63.78,93.76c-0.39,0-0.71,0.13-0.96,0.4 c-0.24,0.27-0.4,0.65-0.47,1.14h2.76v-0.16c-0.01-0.44-0.13-0.78-0.36-1.02C64.53,93.88,64.2,93.76,63.78,93.76z" class="st1"/> <path d="M70.12,92.3l0.06,0.86c0.53-0.66,1.24-1,2.13-1c0.79,0,1.37,0.23,1.76,0.69c0.38,0.46,0.58,1.15,0.59,2.07 v4.8h-1.98v-4.76c0-0.42-0.09-0.73-0.27-0.92c-0.18-0.19-0.49-0.29-0.91-0.29c-0.56,0-0.98,0.24-1.26,0.71v5.25h-1.98V92.3H70.12z" class="st1"/> <path d="M78.04,92.3l0.06,0.86c0.53-0.66,1.24-1,2.13-1c0.79,0,1.37,0.23,1.76,0.69c0.38,0.46,0.58,1.15,0.59,2.07 v4.8H80.6v-4.76c0-0.42-0.09-0.73-0.27-0.92c-0.18-0.19-0.49-0.29-0.91-0.29c-0.56,0-0.98,0.24-1.26,0.71v5.25h-1.98V92.3H78.04z" class="st1"/> <path d="M88.09,97.68c0-0.24-0.12-0.43-0.36-0.57s-0.63-0.26-1.16-0.37c-1.77-0.37-2.65-1.12-2.65-2.25 c0-0.66,0.27-1.21,0.82-1.65c0.55-0.44,1.26-0.66,2.14-0.66c0.94,0,1.7,0.22,2.26,0.67c0.56,0.44,0.85,1.02,0.85,1.73h-1.98 c0-0.28-0.09-0.52-0.27-0.7c-0.18-0.19-0.47-0.28-0.86-0.28c-0.33,0-0.59,0.08-0.78,0.23c-0.18,0.15-0.27,0.34-0.27,0.58 c0,0.22,0.1,0.4,0.31,0.53s0.56,0.25,1.05,0.35c0.49,0.1,0.91,0.21,1.25,0.33c1.05,0.38,1.57,1.05,1.57,2 c0,0.68-0.29,1.23-0.87,1.64c-0.58,0.42-1.33,0.63-2.25,0.63c-0.62,0-1.17-0.11-1.66-0.33c-0.48-0.22-0.86-0.53-1.14-0.91 c-0.27-0.39-0.41-0.8-0.41-1.25h1.88c0.02,0.35,0.15,0.62,0.39,0.81c0.24,0.19,0.57,0.28,0.97,0.28c0.38,0,0.67-0.07,0.86-0.22 C87.99,98.1,88.09,97.91,88.09,97.68z" class="st1"/> <path d="M93.96,96.92l1.37-4.62h2.13l-2.99,8.58l-0.16,0.39c-0.44,0.97-1.18,1.46-2.2,1.46 c-0.29,0-0.58-0.04-0.88-0.13v-1.5l0.3,0.01c0.38,0,0.66-0.06,0.84-0.17c0.19-0.11,0.33-0.3,0.44-0.57l0.23-0.61l-2.6-7.45h2.13 L93.96,96.92z" class="st1"/> <path d="M100.34,99.73h-1.99V89.19h1.99V99.73z" class="st1"/> <path d="M104.73,97.3l1.38-5h2.07l-2.5,7.43h-1.89l-2.5-7.43h2.07L104.73,97.3z" class="st1"/> <path d="M113.17,99.73c-0.09-0.18-0.16-0.4-0.2-0.67c-0.48,0.54-1.1,0.8-1.87,0.8c-0.73,0-1.33-0.21-1.81-0.63 c-0.48-0.42-0.72-0.95-0.72-1.59c0-0.79,0.29-1.39,0.88-1.81s1.43-0.63,2.53-0.64h0.91v-0.42c0-0.34-0.09-0.62-0.26-0.82 c-0.18-0.21-0.45-0.31-0.83-0.31c-0.33,0-0.6,0.08-0.79,0.24c-0.19,0.16-0.29,0.38-0.29,0.66h-1.98c0-0.43,0.13-0.83,0.4-1.19 c0.27-0.37,0.64-0.65,1.13-0.86c0.48-0.21,1.03-0.31,1.63-0.31c0.92,0,1.64,0.23,2.18,0.69c0.54,0.46,0.81,1.11,0.81,1.94v3.22 c0,0.71,0.1,1.24,0.3,1.6v0.12H113.17z M111.53,98.35c0.29,0,0.56-0.06,0.81-0.2c0.25-0.13,0.43-0.31,0.55-0.53v-1.28h-0.74 c-0.99,0-1.52,0.34-1.59,1.03l-0.01,0.12c0,0.25,0.09,0.45,0.26,0.61S111.22,98.35,111.53,98.35z" class="st1"/> <path d="M118.26,92.3l0.06,0.86c0.53-0.66,1.24-1,2.13-1c0.79,0,1.37,0.23,1.76,0.69c0.38,0.46,0.58,1.15,0.59,2.07 v4.8h-1.98v-4.76c0-0.42-0.09-0.73-0.27-0.92c-0.18-0.19-0.49-0.29-0.91-0.29c-0.56,0-0.98,0.24-1.26,0.71v5.25h-1.98V92.3H118.26 z" class="st1"/> <path d="M124.25,90.38c0-0.3,0.1-0.54,0.3-0.73c0.2-0.19,0.47-0.29,0.81-0.29c0.34,0,0.61,0.1,0.81,0.29 c0.2,0.19,0.3,0.44,0.3,0.73c0,0.3-0.1,0.55-0.31,0.74s-0.47,0.29-0.81,0.29s-0.6-0.1-0.81-0.29 C124.36,90.93,124.25,90.68,124.25,90.38z M126.36,99.73h-1.99V92.3h1.99V99.73z" class="st1"/> <path d="M132.25,99.73c-0.09-0.18-0.16-0.4-0.2-0.67c-0.48,0.54-1.1,0.8-1.87,0.8c-0.73,0-1.33-0.21-1.81-0.63 c-0.48-0.42-0.72-0.95-0.72-1.59c0-0.79,0.29-1.39,0.88-1.81c0.58-0.42,1.43-0.63,2.53-0.64h0.91v-0.42 c0-0.34-0.09-0.62-0.26-0.82c-0.18-0.21-0.45-0.31-0.83-0.31c-0.33,0-0.6,0.08-0.79,0.24c-0.19,0.16-0.29,0.38-0.29,0.66h-1.98 c0-0.43,0.13-0.83,0.4-1.19c0.27-0.37,0.64-0.65,1.13-0.86c0.48-0.21,1.03-0.31,1.63-0.31c0.92,0,1.64,0.23,2.18,0.69 c0.54,0.46,0.81,1.11,0.81,1.94v3.22c0,0.71,0.1,1.24,0.3,1.6v0.12H132.25z M130.61,98.35c0.29,0,0.56-0.06,0.81-0.2 c0.25-0.13,0.43-0.31,0.55-0.53v-1.28h-0.74c-0.99,0-1.52,0.34-1.59,1.03l-0.01,0.12c0,0.25,0.09,0.45,0.26,0.61 S130.31,98.35,130.61,98.35z" class="st1"/> <path d="M17.86,115.15c-0.37,0.44-0.89,0.79-1.57,1.03c-0.68,0.24-1.43,0.37-2.25,0.37c-0.86,0-1.62-0.19-2.28-0.57 c-0.65-0.38-1.16-0.93-1.51-1.64c-0.35-0.72-0.54-1.56-0.55-2.53v-0.68c0-1,0.17-1.86,0.5-2.59c0.34-0.73,0.82-1.29,1.46-1.67 c0.63-0.39,1.38-0.58,2.23-0.58c1.19,0,2.11,0.28,2.78,0.85c0.67,0.56,1.06,1.39,1.19,2.47h-2c-0.09-0.57-0.29-0.99-0.61-1.26 c-0.31-0.27-0.75-0.4-1.29-0.4c-0.7,0-1.23,0.26-1.6,0.79c-0.37,0.53-0.55,1.31-0.56,2.35v0.64c0,1.05,0.2,1.84,0.6,2.38 c0.4,0.54,0.98,0.8,1.75,0.8c0.77,0,1.32-0.17,1.65-0.49v-1.72h-1.87v-1.52h3.93V115.15z" class="st1"/> <path d="M22.85,116.55c-1.09,0-1.98-0.33-2.66-1c-0.68-0.67-1.03-1.56-1.03-2.67v-0.19c0-0.75,0.14-1.41,0.43-2 c0.29-0.59,0.7-1.04,1.23-1.36c0.53-0.32,1.13-0.48,1.81-0.48c1.02,0,1.82,0.32,2.4,0.96s0.88,1.55,0.88,2.72v0.81h-4.73 c0.06,0.49,0.26,0.87,0.58,1.17c0.32,0.29,0.73,0.44,1.23,0.44c0.76,0,1.36-0.28,1.79-0.83l0.97,1.09 c-0.3,0.42-0.7,0.75-1.21,0.99C24.03,116.43,23.47,116.55,22.85,116.55z M22.62,110.44c-0.39,0-0.71,0.13-0.96,0.4 c-0.24,0.27-0.4,0.65-0.47,1.14h2.76v-0.16c-0.01-0.44-0.13-0.78-0.36-1.02C23.37,110.56,23.04,110.44,22.62,110.44z" class="st1"/> <path d="M29.47,107.16v1.83h1.27v1.46h-1.27v3.71c0,0.27,0.05,0.47,0.16,0.59c0.1,0.12,0.31,0.18,0.6,0.18 c0.22,0,0.41-0.02,0.58-0.05v1.5c-0.39,0.12-0.79,0.18-1.2,0.18c-1.39,0-2.1-0.7-2.13-2.11v-4H26.4v-1.46h1.08v-1.83H29.47z" class="st1"/> <path d="M43.32,113.08c-0.08,1.08-0.47,1.92-1.19,2.54c-0.72,0.62-1.66,0.93-2.83,0.93c-1.28,0-2.29-0.43-3.02-1.29 s-1.1-2.05-1.1-3.55v-0.61c0-0.96,0.17-1.81,0.51-2.54c0.34-0.73,0.82-1.29,1.45-1.68c0.63-0.39,1.36-0.59,2.19-0.59 c1.15,0,2.08,0.31,2.79,0.93c0.7,0.62,1.11,1.49,1.22,2.6h-2.06c-0.05-0.65-0.23-1.11-0.54-1.4c-0.31-0.29-0.78-0.44-1.41-0.44 c-0.69,0-1.2,0.25-1.54,0.74s-0.52,1.25-0.52,2.29v0.75c0,1.08,0.16,1.87,0.49,2.37c0.33,0.5,0.84,0.75,1.55,0.75 c0.64,0,1.11-0.15,1.42-0.44c0.31-0.29,0.49-0.74,0.54-1.35H43.32z" class="st1"/> <path d="M44.29,112.63c0-0.74,0.14-1.39,0.43-1.97c0.28-0.58,0.69-1.02,1.23-1.34s1.15-0.47,1.86-0.47 c1,0,1.82,0.31,2.45,0.92s0.99,1.45,1.06,2.5l0.01,0.51c0,1.14-0.32,2.05-0.95,2.74c-0.64,0.69-1.49,1.03-2.56,1.03 c-1.07,0-1.92-0.34-2.56-1.03c-0.64-0.69-0.96-1.62-0.96-2.8V112.63z M46.28,112.77c0,0.71,0.13,1.25,0.4,1.62 c0.27,0.37,0.65,0.56,1.14,0.56c0.48,0,0.86-0.18,1.13-0.55c0.27-0.37,0.4-0.96,0.4-1.77c0-0.69-0.14-1.23-0.4-1.61 c-0.27-0.38-0.65-0.57-1.14-0.57c-0.48,0-0.86,0.19-1.13,0.57C46.41,111.39,46.28,111.97,46.28,112.77z" class="st1"/> <path d="M54.42,108.98l0.06,0.86c0.53-0.66,1.24-1,2.13-1c0.79,0,1.37,0.23,1.76,0.69c0.38,0.46,0.58,1.15,0.59,2.07 v4.8h-1.98v-4.76c0-0.42-0.09-0.73-0.27-0.92c-0.18-0.19-0.49-0.29-0.91-0.29c-0.56,0-0.98,0.24-1.26,0.71v5.25h-1.98v-7.43H54.42 z" class="st1"/> <path d="M62.34,108.98l0.06,0.86c0.53-0.66,1.24-1,2.13-1c0.79,0,1.37,0.23,1.76,0.69c0.38,0.46,0.58,1.15,0.59,2.07 v4.8H64.9v-4.76c0-0.42-0.09-0.73-0.27-0.92c-0.18-0.19-0.49-0.29-0.91-0.29c-0.56,0-0.98,0.24-1.26,0.71v5.25h-1.98v-7.43H62.34z" class="st1"/> <path d="M71.77,116.55c-1.09,0-1.98-0.33-2.66-1c-0.68-0.67-1.03-1.56-1.03-2.67v-0.19c0-0.75,0.14-1.41,0.43-2 c0.29-0.59,0.7-1.04,1.23-1.36c0.53-0.32,1.13-0.48,1.81-0.48c1.02,0,1.82,0.32,2.4,0.96s0.88,1.55,0.88,2.72v0.81H70.1 c0.06,0.49,0.26,0.87,0.58,1.17c0.32,0.29,0.73,0.44,1.23,0.44c0.76,0,1.36-0.28,1.79-0.83l0.97,1.09 c-0.3,0.42-0.7,0.75-1.21,0.99C72.95,116.43,72.39,116.55,71.77,116.55z M71.55,110.44c-0.39,0-0.71,0.13-0.96,0.4 c-0.24,0.27-0.4,0.65-0.47,1.14h2.76v-0.16c-0.01-0.44-0.13-0.78-0.36-1.02C72.29,110.56,71.97,110.44,71.55,110.44z" class="st1"/> <path d="M79.11,114.95c0.37,0,0.66-0.1,0.89-0.3c0.23-0.2,0.35-0.47,0.36-0.8h1.86c0,0.5-0.14,0.96-0.41,1.38 c-0.27,0.42-0.64,0.74-1.11,0.97c-0.47,0.23-0.99,0.35-1.55,0.35c-1.06,0-1.9-0.34-2.51-1.01s-0.92-1.61-0.92-2.8v-0.13 c0-1.14,0.3-2.06,0.91-2.74s1.44-1.02,2.51-1.02c0.93,0,1.67,0.26,2.23,0.79s0.85,1.23,0.85,2.11h-1.86 c-0.01-0.39-0.13-0.7-0.36-0.94c-0.23-0.24-0.53-0.36-0.91-0.36c-0.46,0-0.81,0.17-1.05,0.5c-0.24,0.34-0.35,0.88-0.35,1.64v0.21 c0,0.77,0.12,1.32,0.35,1.65C78.28,114.78,78.64,114.95,79.11,114.95z" class="st1"/> <path d="M85.87,107.16v1.83h1.27v1.46h-1.27v3.71c0,0.27,0.05,0.47,0.16,0.59c0.1,0.12,0.31,0.18,0.6,0.18 c0.22,0,0.41-0.02,0.58-0.05v1.5c-0.39,0.12-0.79,0.18-1.2,0.18c-1.39,0-2.1-0.7-2.13-2.11v-4H82.8v-1.46h1.08v-1.83H85.87z" class="st1"/> <path d="M91.52,116.55c-1.09,0-1.98-0.33-2.66-1c-0.68-0.67-1.03-1.56-1.03-2.67v-0.19c0-0.75,0.14-1.41,0.43-2 c0.29-0.59,0.7-1.04,1.23-1.36c0.53-0.32,1.13-0.48,1.81-0.48c1.02,0,1.82,0.32,2.4,0.96s0.88,1.55,0.88,2.72v0.81h-4.73 c0.06,0.49,0.26,0.87,0.58,1.17c0.32,0.29,0.73,0.44,1.23,0.44c0.76,0,1.36-0.28,1.79-0.83l0.97,1.09 c-0.3,0.42-0.7,0.75-1.21,0.99C92.71,116.43,92.14,116.55,91.52,116.55z M91.3,110.44c-0.39,0-0.71,0.13-0.96,0.4 c-0.24,0.27-0.4,0.65-0.47,1.14h2.76v-0.16c-0.01-0.44-0.13-0.78-0.36-1.02C92.04,110.56,91.72,110.44,91.3,110.44z" class="st1"/> <path d="M95.47,112.64c0-1.16,0.26-2.08,0.78-2.77c0.52-0.69,1.23-1.03,2.13-1.03c0.72,0,1.32,0.27,1.79,0.81v-3.79 h1.99v10.54h-1.79l-0.1-0.79c-0.49,0.62-1.13,0.93-1.91,0.93c-0.87,0-1.58-0.34-2.1-1.03S95.47,113.87,95.47,112.64z M97.45,112.78c0,0.7,0.12,1.23,0.36,1.61c0.24,0.37,0.59,0.56,1.06,0.56c0.61,0,1.05-0.26,1.3-0.78v-2.94 c-0.25-0.52-0.67-0.78-1.28-0.78C97.93,110.44,97.45,111.22,97.45,112.78z" class="st1"/> <path d="M103.75,115.43c0-0.32,0.11-0.57,0.32-0.77c0.21-0.2,0.48-0.29,0.8-0.29c0.32,0,0.59,0.1,0.81,0.29 c0.21,0.2,0.32,0.45,0.32,0.77c0,0.31-0.1,0.56-0.32,0.76s-0.48,0.29-0.81,0.29c-0.32,0-0.59-0.1-0.8-0.29 S103.75,115.75,103.75,115.43z" class="st1"/> <path d="M119.27,115.15c-0.37,0.44-0.89,0.79-1.57,1.03c-0.68,0.24-1.43,0.37-2.25,0.37c-0.86,0-1.62-0.19-2.28-0.57 c-0.65-0.38-1.16-0.93-1.51-1.64c-0.35-0.72-0.54-1.56-0.55-2.53v-0.68c0-1,0.17-1.86,0.5-2.59c0.34-0.73,0.82-1.29,1.46-1.67 c0.63-0.39,1.38-0.58,2.23-0.58c1.19,0,2.11,0.28,2.78,0.85c0.67,0.56,1.06,1.39,1.19,2.47h-2c-0.09-0.57-0.29-0.99-0.61-1.26 c-0.31-0.27-0.75-0.4-1.29-0.4c-0.7,0-1.23,0.26-1.6,0.79c-0.37,0.53-0.55,1.31-0.56,2.35v0.64c0,1.05,0.2,1.84,0.6,2.38 c0.4,0.54,0.98,0.8,1.75,0.8c0.77,0,1.32-0.17,1.65-0.49v-1.72h-1.87v-1.52h3.93V115.15z" class="st1"/> <path d="M124.26,116.55c-1.09,0-1.98-0.33-2.66-1c-0.68-0.67-1.03-1.56-1.03-2.67v-0.19c0-0.75,0.14-1.41,0.43-2 c0.29-0.59,0.7-1.04,1.23-1.36c0.53-0.32,1.13-0.48,1.81-0.48c1.02,0,1.82,0.32,2.4,0.96s0.88,1.55,0.88,2.72v0.81h-4.73 c0.06,0.49,0.26,0.87,0.58,1.17c0.32,0.29,0.73,0.44,1.23,0.44c0.76,0,1.36-0.28,1.79-0.83l0.97,1.09 c-0.3,0.42-0.7,0.75-1.21,0.99C125.44,116.43,124.88,116.55,124.26,116.55z M124.04,110.44c-0.39,0-0.71,0.13-0.96,0.4 c-0.24,0.27-0.4,0.65-0.47,1.14h2.76v-0.16c-0.01-0.44-0.13-0.78-0.36-1.02C124.78,110.56,124.46,110.44,124.04,110.44z" class="st1"/> <path d="M130.89,107.16v1.83h1.27v1.46h-1.27v3.71c0,0.27,0.05,0.47,0.16,0.59c0.1,0.12,0.31,0.18,0.6,0.18 c0.22,0,0.41-0.02,0.58-0.05v1.5c-0.39,0.12-0.79,0.18-1.2,0.18c-1.39,0-2.1-0.7-2.13-2.11v-4h-1.08v-1.46h1.08v-1.83H130.89z" class="st1"/> <path d="M145.03,116.41h-2.06v-4.28h-4.02v4.28h-2.06v-9.99h2.06v4.05h4.02v-4.05h2.06V116.41z" class="st1"/> <path d="M150.16,116.55c-1.09,0-1.98-0.33-2.66-1c-0.68-0.67-1.03-1.56-1.03-2.67v-0.19c0-0.75,0.14-1.41,0.43-2 c0.29-0.59,0.7-1.04,1.23-1.36c0.53-0.32,1.13-0.48,1.81-0.48c1.02,0,1.82,0.32,2.4,0.96s0.88,1.55,0.88,2.72v0.81h-4.73 c0.06,0.49,0.26,0.87,0.58,1.17c0.32,0.29,0.73,0.44,1.23,0.44c0.76,0,1.36-0.28,1.79-0.83l0.97,1.09 c-0.3,0.42-0.7,0.75-1.21,0.99C151.34,116.43,150.78,116.55,150.16,116.55z M149.93,110.44c-0.39,0-0.71,0.13-0.96,0.4 c-0.24,0.27-0.4,0.65-0.47,1.14h2.76v-0.16c-0.01-0.44-0.13-0.78-0.36-1.02C150.68,110.56,150.35,110.44,149.93,110.44z" class="st1"/> <path d="M156.48,116.41h-1.99v-10.54h1.99V116.41z" class="st1"/> <path d="M164.78,112.76c0,1.14-0.26,2.06-0.78,2.75c-0.52,0.69-1.22,1.03-2.1,1.03c-0.75,0-1.36-0.26-1.82-0.78v3.5 h-1.98v-10.28h1.84l0.07,0.73c0.48-0.58,1.11-0.87,1.88-0.87c0.92,0,1.63,0.34,2.13,1.02c0.51,0.68,0.76,1.61,0.76,2.8V112.76z M162.79,112.61c0-0.69-0.12-1.23-0.37-1.6c-0.25-0.38-0.6-0.56-1.07-0.56c-0.62,0-1.05,0.24-1.28,0.72v3.05 c0.24,0.49,0.68,0.74,1.3,0.74C162.32,114.95,162.79,114.17,162.79,112.61z" class="st1"/> <path d="M165.86,115.43c0-0.32,0.11-0.57,0.32-0.77c0.21-0.2,0.48-0.29,0.8-0.29c0.32,0,0.59,0.1,0.81,0.29 c0.21,0.2,0.32,0.45,0.32,0.77c0,0.31-0.1,0.56-0.32,0.76s-0.48,0.29-0.81,0.29c-0.32,0-0.59-0.1-0.8-0.29 S165.86,115.75,165.86,115.43z" class="st1"/> <path d="M171.34,107.16h-0.89v2.96h-0.97v-2.96h-0.93v-0.74h2.79V107.16z M174.72,107.72l-0.76,2.42h-0.49l-0.76-2.42 v2.42h-0.88v-3.72h1.08l0.8,2.53l0.86-2.53h1.02v3.72h-0.88V107.72z" class="st1"/> </g> </g> </svg>